<svg width="40" height="40" viewBox="0 0 40 40" fill="none" xmlns="http://www.w3.org/2000/svg">
  <g clip-path="url(#clip0_0_27)">
    <path
      d="M-11.4243 -18.0303C-1.42426 4.39391 37.556 9.90906 38.4848 30.6969C39.1212 44.9394 23.7273 59.303 11.3939 59.9394"
      stroke="white" stroke-width="1.5" />
    <path
      d="M-0.909058 -25.0909C4.09094 5.18179 45.1015 12.0909 46.0303 32.8788C46.6667 47.1212 35.1515 52.3636 25.4849 59.0606"
      stroke="white" stroke-width="1.5" />
    <path d="M13.5455 -26.3636C13.0303 -18.1818 29.1515 11.3333 49.5455 0.51514" stroke="white"
      stroke-width="1.5" />
    <path d="M8.07356 -24.0606C7.55841 -15.8788 29.6061 15.6667 44.4545 7.48485" stroke="white"
      stroke-width="1.5" />
    <path
      d="M-1.78796 22.0909C12.1817 31.0909 34.1211 27.7575 31.0302 41.7272C28.6146 52.645 13.606 55.3333 5.39385 57.6363"
      stroke="white" stroke-width="1.5" />
    <path
      d="M-6.30295 -0.333374C7.66675 8.66663 25.9092 15.6969 24.1213 22.3636C22.3009 29.1515 -3.18174 15.4242 -11.3939 17.7272"
      stroke="white" stroke-width="1.5" />
    <path
      d="M-13.7585 0.228723C-0.539331 7.44789 17.0669 13.9401 14.8057 17.8754C12.5034 21.8823 -11.806 10.3854 -20.1298 10.8612"
      stroke="white" stroke-width="1.5" />
    <path
      d="M-9.09094 24.4242C4.87876 33.4242 28.6797 32.1212 26.2727 43C24.972 48.8787 17.9394 52 9.72724 54.303"
      stroke="white" stroke-width="1.5" />
    <path
      d="M-13.0909 32.2424C0.878756 41.2424 20.0303 33.2727 20.9091 43.2727C21.4361 49.2706 10.5151 51.3636 2.303 53.6666"
      stroke="white" stroke-width="1.5" />
    <path
      d="M-21.7576 34.0606C-7.78787 43.0606 14.0909 38.3939 14.0909 44.5454C14.0909 49.1515 1.03031 50.3333 -7.18181 52.6363"
      stroke="white" stroke-width="1.5" />
  </g>
  <defs>
    <clipPath id="clip0_0_27">
      <rect width="40" height="65.4545" fill="white" transform="translate(0 -12.7273)" />
    </clipPath>
  </defs>
</svg>