<svg width="30" height="26" viewBox="0 0 30 26" fill="none" xmlns="http://www.w3.org/2000/svg">
  <path
    d="M9.4377 25.1875C20.7557 25.1875 26.9479 15.8084 26.9479 7.67733C26.9479 7.41365 26.942 7.14412 26.9303 6.88045C28.1348 6.00933 29.1744 4.93032 30 3.69412C28.8782 4.19325 27.6871 4.51923 26.4674 4.66092C27.7516 3.89114 28.7132 2.68184 29.1738 1.25721C27.9657 1.9732 26.6445 2.47826 25.2668 2.75076C24.3385 1.76445 23.1112 1.1114 21.7746 0.892564C20.438 0.673732 19.0665 0.901313 17.8722 1.54012C16.6779 2.17893 15.7273 3.19338 15.1673 4.42664C14.6074 5.6599 14.4693 7.04327 14.7744 8.36287C12.3281 8.24011 9.93492 7.60463 7.74998 6.49762C5.56503 5.39062 3.63712 3.8368 2.09121 1.9369C1.3055 3.29155 1.06507 4.89456 1.41879 6.42011C1.77251 7.94567 2.69383 9.27931 3.99551 10.15C3.01829 10.119 2.06247 9.85585 1.20703 9.3824V9.45858C1.20616 10.8802 1.69762 12.2582 2.59789 13.3585C3.49815 14.4587 4.75165 15.2132 6.14531 15.4937C5.24007 15.7414 4.28998 15.7775 3.36855 15.5992C3.76182 16.8218 4.52697 17.8911 5.55721 18.6579C6.58746 19.4247 7.8314 19.8507 9.11543 19.8765C6.93553 21.5889 4.24272 22.5177 1.4707 22.5133C0.979109 22.5125 0.487999 22.4824 0 22.423C2.81607 24.2297 6.09191 25.1892 9.4377 25.1875Z"
    fill="white" />
</svg>